<svg id="图层_2" data-name="图层 2" xmlns="http://www.w3.org/2000/svg" viewBox="0 0 36 36"><defs><style>.cls-1{fill:#f9cc14;}.cls-2{fill:#1ebc57;}</style></defs><title>36</title><ellipse class="cls-1" cx="18" cy="19.25" rx="18" ry="16.75"/><path class="cls-2" d="M156.4,132.6c-1.85,2.34-4.6,3.36-8.18,3.16l9.22,13.93c2.57,3.73,2,7-2.35,9.74-4.05,2.56-8.14,2.36-12.28-.77-2.48-2.36-2.3-5.12,0-8.19,2.91-2.7,6.5-3.46,10.54-2.91l-10.53-13.35c-.22-2,2.45-3.71,7.9-5a9.73,9.73,0,0,0,6.1-2.64C157.29,129.66,157.27,131.88,156.4,132.6Z" transform="translate(-132 -126.54)"/></svg>