<svg id="图层_2" data-name="图层 2" xmlns="http://www.w3.org/2000/svg" viewBox="0 0 64 64"><defs><style>.cls-1{fill:#f9cc14;}.cls-2{fill:#1ebc57;}</style></defs><title>64</title><ellipse class="cls-1" cx="32" cy="34.22" rx="32" ry="29.78"/><path class="cls-2" d="M161.38,123.32c-3.3,4.16-8.18,6-14.54,5.61l16.39,24.77c4.56,6.63,3.6,12.47-4.19,17.31-7.19,4.54-14.46,4.19-21.83-1.37-4.4-4.2-4.08-9.1,0-14.56,5.18-4.8,11.56-6.15,18.75-5.16l-18.73-23.74c-.38-3.63,4.35-6.6,14.05-8.94a17.39,17.39,0,0,0,10.84-4.7C163,118.08,162.92,122,161.38,123.32Z" transform="translate(-118 -112.54)"/></svg>