<svg id="图层_2" data-name="图层 2" xmlns="http://www.w3.org/2000/svg" viewBox="0 0 48 48"><defs><style>.cls-1{fill:#f9cc14;}.cls-2{fill:#1ebc57;}</style></defs><title>48</title><ellipse class="cls-1" cx="24" cy="25.67" rx="24" ry="22.33"/><path class="cls-2" d="M158.54,128.62c-2.48,3.12-6.14,4.49-10.91,4.22l12.29,18.57c3.42,5,2.7,9.35-3.14,13-5.39,3.41-10.85,3.15-16.37-1-3.3-3.14-3.07-6.82,0-10.92,3.88-3.59,8.66-4.61,14.06-3.87l-14-17.8c-.29-2.72,3.26-5,10.53-6.71a13,13,0,0,0,8.13-3.52C159.72,124.7,159.69,127.67,158.54,128.62Z" transform="translate(-126 -120.54)"/></svg>