<svg id="图层_2" data-name="图层 2" xmlns="http://www.w3.org/2000/svg" viewBox="0 0 24 24"><defs><style>.cls-1{fill:#f9cc14;}.cls-2{fill:#1ebc57;}</style></defs><title>24</title><ellipse class="cls-1" cx="12" cy="12.83" rx="12" ry="11.17"/><path class="cls-2" d="M154.27,136.58a6.08,6.08,0,0,1-5.45,2.11L155,148c1.71,2.49,1.35,4.68-1.57,6.5-2.7,1.7-5.42,1.57-8.19-.52-1.64-1.57-1.53-3.41,0-5.46a8.15,8.15,0,0,1,7-1.93l-7-8.9c-.14-1.36,1.63-2.48,5.27-3.36a6.54,6.54,0,0,0,4.07-1.76C154.86,134.62,154.85,136.1,154.27,136.58Z" transform="translate(-138 -132.54)"/></svg>