<svg id="图层_2" data-name="图层 2" xmlns="http://www.w3.org/2000/svg" viewBox="0 0 16 16"><defs><style>.cls-1{fill:#f9cc14;}.cls-2{fill:#1ebc57;}</style></defs><title>16</title><ellipse class="cls-1" cx="8" cy="8.56" rx="8" ry="7.44"/><path class="cls-2" d="M152.85,139.23a4.06,4.06,0,0,1-3.64,1.41l4.1,6.19c1.14,1.66.9,3.12-1.05,4.33a4.43,4.43,0,0,1-5.46-.35c-1.1-1-1-2.27,0-3.64a5.5,5.5,0,0,1,4.69-1.29L146.81,140c-.1-.91,1.09-1.65,3.51-2.24a4.3,4.3,0,0,0,2.71-1.17C153.24,137.93,153.23,138.92,152.85,139.23Z" transform="translate(-142 -136.54)"/></svg>